<mxfile host="app.diagrams.net" modified="2023-11-23T14:42:42.926Z" agent="Mozilla/5.0 (Windows NT 10.0; Win64; x64) AppleWebKit/537.36 (KHTML, like Gecko) Chrome/119.0.0.0 Safari/537.36" etag="MTq4jlSedOPGfkGCTCUz" version="22.1.3" type="device">
  <diagram name="Page-1" id="ef6brrc2ICS756ohVVsz">
    <mxGraphModel dx="1050" dy="534" grid="1" gridSize="10" guides="1" tooltips="1" connect="1" arrows="1" fold="1" page="1" pageScale="1" pageWidth="850" pageHeight="1100" math="0" shadow="0">
      <root>
        <mxCell id="0" />
        <mxCell id="1" parent="0" />
        <mxCell id="-q9XP1U6kulb8mDKbYyn-1" value="" style="ellipse;whiteSpace=wrap;html=1;aspect=fixed;" vertex="1" parent="1">
          <mxGeometry x="110" y="120" width="80" height="80" as="geometry" />
        </mxCell>
        <mxCell id="-q9XP1U6kulb8mDKbYyn-2" value="" style="ellipse;whiteSpace=wrap;html=1;aspect=fixed;" vertex="1" parent="1">
          <mxGeometry x="400" y="120" width="80" height="80" as="geometry" />
        </mxCell>
        <mxCell id="-q9XP1U6kulb8mDKbYyn-3" value="" style="ellipse;whiteSpace=wrap;html=1;aspect=fixed;" vertex="1" parent="1">
          <mxGeometry x="250" y="240" width="80" height="80" as="geometry" />
        </mxCell>
        <mxCell id="-q9XP1U6kulb8mDKbYyn-4" value="T1" style="text;html=1;strokeColor=none;fillColor=none;align=center;verticalAlign=middle;whiteSpace=wrap;rounded=0;" vertex="1" parent="1">
          <mxGeometry x="120" y="145" width="60" height="30" as="geometry" />
        </mxCell>
        <mxCell id="-q9XP1U6kulb8mDKbYyn-5" value="T2" style="text;html=1;strokeColor=none;fillColor=none;align=center;verticalAlign=middle;whiteSpace=wrap;rounded=0;" vertex="1" parent="1">
          <mxGeometry x="260" y="265" width="60" height="30" as="geometry" />
        </mxCell>
        <mxCell id="-q9XP1U6kulb8mDKbYyn-6" value="T3" style="text;html=1;strokeColor=none;fillColor=none;align=center;verticalAlign=middle;whiteSpace=wrap;rounded=0;" vertex="1" parent="1">
          <mxGeometry x="410" y="145" width="60" height="30" as="geometry" />
        </mxCell>
        <mxCell id="-q9XP1U6kulb8mDKbYyn-7" value="" style="endArrow=classic;html=1;rounded=0;exitX=1;exitY=1;exitDx=0;exitDy=0;entryX=0;entryY=0;entryDx=0;entryDy=0;" edge="1" parent="1" source="-q9XP1U6kulb8mDKbYyn-1" target="-q9XP1U6kulb8mDKbYyn-3">
          <mxGeometry width="50" height="50" relative="1" as="geometry">
            <mxPoint x="400" y="200" as="sourcePoint" />
            <mxPoint x="450" y="150" as="targetPoint" />
          </mxGeometry>
        </mxCell>
        <mxCell id="-q9XP1U6kulb8mDKbYyn-8" value="" style="endArrow=classic;html=1;rounded=0;entryX=0.5;entryY=1;entryDx=0;entryDy=0;exitX=0;exitY=0.5;exitDx=0;exitDy=0;" edge="1" parent="1" source="-q9XP1U6kulb8mDKbYyn-3" target="-q9XP1U6kulb8mDKbYyn-1">
          <mxGeometry width="50" height="50" relative="1" as="geometry">
            <mxPoint x="180" y="330" as="sourcePoint" />
            <mxPoint x="272" y="262" as="targetPoint" />
          </mxGeometry>
        </mxCell>
        <mxCell id="-q9XP1U6kulb8mDKbYyn-9" value="" style="endArrow=classic;html=1;rounded=0;exitX=0;exitY=1;exitDx=0;exitDy=0;entryX=1;entryY=0;entryDx=0;entryDy=0;" edge="1" parent="1" source="-q9XP1U6kulb8mDKbYyn-2" target="-q9XP1U6kulb8mDKbYyn-3">
          <mxGeometry width="50" height="50" relative="1" as="geometry">
            <mxPoint x="410" y="240" as="sourcePoint" />
            <mxPoint x="494" y="304" as="targetPoint" />
          </mxGeometry>
        </mxCell>
        <mxCell id="-q9XP1U6kulb8mDKbYyn-10" value="&lt;h1&gt;HW11_adhiraj_budukh&lt;/h1&gt;&lt;h1&gt;Q1.S1&lt;/h1&gt;" style="text;html=1;strokeColor=none;fillColor=none;spacing=5;spacingTop=-20;whiteSpace=wrap;overflow=hidden;rounded=0;" vertex="1" parent="1">
          <mxGeometry x="170" y="40" width="275" height="105" as="geometry" />
        </mxCell>
        <mxCell id="-q9XP1U6kulb8mDKbYyn-11" value="" style="ellipse;whiteSpace=wrap;html=1;aspect=fixed;" vertex="1" parent="1">
          <mxGeometry x="320" y="510" width="60" height="60" as="geometry" />
        </mxCell>
        <mxCell id="-q9XP1U6kulb8mDKbYyn-12" value="" style="ellipse;whiteSpace=wrap;html=1;aspect=fixed;" vertex="1" parent="1">
          <mxGeometry x="480" y="600" width="60" height="60" as="geometry" />
        </mxCell>
        <mxCell id="-q9XP1U6kulb8mDKbYyn-13" value="" style="ellipse;whiteSpace=wrap;html=1;aspect=fixed;" vertex="1" parent="1">
          <mxGeometry x="170" y="600" width="60" height="60" as="geometry" />
        </mxCell>
        <mxCell id="-q9XP1U6kulb8mDKbYyn-14" value="" style="ellipse;whiteSpace=wrap;html=1;aspect=fixed;" vertex="1" parent="1">
          <mxGeometry x="330" y="690" width="60" height="60" as="geometry" />
        </mxCell>
        <mxCell id="-q9XP1U6kulb8mDKbYyn-15" value="" style="endArrow=classic;html=1;rounded=0;exitX=1;exitY=0;exitDx=0;exitDy=0;entryX=0;entryY=0.5;entryDx=0;entryDy=0;" edge="1" parent="1" source="-q9XP1U6kulb8mDKbYyn-13" target="-q9XP1U6kulb8mDKbYyn-11">
          <mxGeometry width="50" height="50" relative="1" as="geometry">
            <mxPoint x="400" y="700" as="sourcePoint" />
            <mxPoint x="450" y="650" as="targetPoint" />
          </mxGeometry>
        </mxCell>
        <mxCell id="-q9XP1U6kulb8mDKbYyn-16" value="" style="endArrow=classic;html=1;rounded=0;entryX=1;entryY=0.5;entryDx=0;entryDy=0;exitX=0;exitY=0;exitDx=0;exitDy=0;" edge="1" parent="1" source="-q9XP1U6kulb8mDKbYyn-12" target="-q9XP1U6kulb8mDKbYyn-11">
          <mxGeometry width="50" height="50" relative="1" as="geometry">
            <mxPoint x="410" y="660" as="sourcePoint" />
            <mxPoint x="460" y="610" as="targetPoint" />
          </mxGeometry>
        </mxCell>
        <mxCell id="-q9XP1U6kulb8mDKbYyn-17" value="" style="endArrow=classic;html=1;rounded=0;entryX=1;entryY=0.5;entryDx=0;entryDy=0;exitX=0;exitY=0.5;exitDx=0;exitDy=0;" edge="1" parent="1" source="-q9XP1U6kulb8mDKbYyn-12" target="-q9XP1U6kulb8mDKbYyn-13">
          <mxGeometry width="50" height="50" relative="1" as="geometry">
            <mxPoint x="400" y="700" as="sourcePoint" />
            <mxPoint x="260" y="640" as="targetPoint" />
          </mxGeometry>
        </mxCell>
        <mxCell id="-q9XP1U6kulb8mDKbYyn-18" value="" style="endArrow=classic;html=1;rounded=0;exitX=0;exitY=1;exitDx=0;exitDy=0;entryX=1;entryY=0.5;entryDx=0;entryDy=0;" edge="1" parent="1" source="-q9XP1U6kulb8mDKbYyn-12" target="-q9XP1U6kulb8mDKbYyn-14">
          <mxGeometry width="50" height="50" relative="1" as="geometry">
            <mxPoint x="400" y="700" as="sourcePoint" />
            <mxPoint x="510" y="780" as="targetPoint" />
          </mxGeometry>
        </mxCell>
        <mxCell id="-q9XP1U6kulb8mDKbYyn-19" value="" style="endArrow=classic;html=1;rounded=0;exitX=0;exitY=0.5;exitDx=0;exitDy=0;entryX=0.867;entryY=1.193;entryDx=0;entryDy=0;entryPerimeter=0;" edge="1" parent="1" source="-q9XP1U6kulb8mDKbYyn-14" target="-q9XP1U6kulb8mDKbYyn-22">
          <mxGeometry width="50" height="50" relative="1" as="geometry">
            <mxPoint x="400" y="700" as="sourcePoint" />
            <mxPoint x="221" y="658" as="targetPoint" />
          </mxGeometry>
        </mxCell>
        <mxCell id="-q9XP1U6kulb8mDKbYyn-20" value="&lt;h1&gt;HW11_adhiraj_budukh Q1.S2&lt;/h1&gt;" style="text;html=1;strokeColor=none;fillColor=none;spacing=5;spacingTop=-20;whiteSpace=wrap;overflow=hidden;rounded=0;" vertex="1" parent="1">
          <mxGeometry x="190" y="460" width="370" height="35" as="geometry" />
        </mxCell>
        <mxCell id="-q9XP1U6kulb8mDKbYyn-21" value="T1" style="text;html=1;strokeColor=none;fillColor=none;align=center;verticalAlign=middle;whiteSpace=wrap;rounded=0;" vertex="1" parent="1">
          <mxGeometry x="320" y="520" width="60" height="50" as="geometry" />
        </mxCell>
        <mxCell id="-q9XP1U6kulb8mDKbYyn-22" value="T2" style="text;html=1;strokeColor=none;fillColor=none;align=center;verticalAlign=middle;whiteSpace=wrap;rounded=0;" vertex="1" parent="1">
          <mxGeometry x="170" y="615" width="60" height="30" as="geometry" />
        </mxCell>
        <mxCell id="-q9XP1U6kulb8mDKbYyn-23" value="T3" style="text;html=1;strokeColor=none;fillColor=none;align=center;verticalAlign=middle;whiteSpace=wrap;rounded=0;" vertex="1" parent="1">
          <mxGeometry x="480" y="615" width="60" height="30" as="geometry" />
        </mxCell>
        <mxCell id="-q9XP1U6kulb8mDKbYyn-24" value="T4" style="text;html=1;strokeColor=none;fillColor=none;align=center;verticalAlign=middle;whiteSpace=wrap;rounded=0;" vertex="1" parent="1">
          <mxGeometry x="330" y="705" width="60" height="30" as="geometry" />
        </mxCell>
        <mxCell id="-q9XP1U6kulb8mDKbYyn-25" value="" style="ellipse;whiteSpace=wrap;html=1;aspect=fixed;" vertex="1" parent="1">
          <mxGeometry x="290" y="840" width="60" height="60" as="geometry" />
        </mxCell>
        <mxCell id="-q9XP1U6kulb8mDKbYyn-26" value="" style="ellipse;whiteSpace=wrap;html=1;aspect=fixed;" vertex="1" parent="1">
          <mxGeometry x="400" y="960" width="60" height="60" as="geometry" />
        </mxCell>
        <mxCell id="-q9XP1U6kulb8mDKbYyn-27" value="" style="ellipse;whiteSpace=wrap;html=1;aspect=fixed;" vertex="1" parent="1">
          <mxGeometry x="190" y="960" width="60" height="60" as="geometry" />
        </mxCell>
        <mxCell id="-q9XP1U6kulb8mDKbYyn-28" value="T1" style="text;html=1;strokeColor=none;fillColor=none;align=center;verticalAlign=middle;whiteSpace=wrap;rounded=0;" vertex="1" parent="1">
          <mxGeometry x="290" y="845" width="60" height="50" as="geometry" />
        </mxCell>
        <mxCell id="-q9XP1U6kulb8mDKbYyn-29" value="T3" style="text;html=1;strokeColor=none;fillColor=none;align=center;verticalAlign=middle;whiteSpace=wrap;rounded=0;" vertex="1" parent="1">
          <mxGeometry x="400" y="975" width="60" height="30" as="geometry" />
        </mxCell>
        <mxCell id="-q9XP1U6kulb8mDKbYyn-30" value="T2" style="text;html=1;strokeColor=none;fillColor=none;align=center;verticalAlign=middle;whiteSpace=wrap;rounded=0;" vertex="1" parent="1">
          <mxGeometry x="190" y="975" width="60" height="30" as="geometry" />
        </mxCell>
        <mxCell id="-q9XP1U6kulb8mDKbYyn-31" value="" style="endArrow=classic;html=1;rounded=0;entryX=1;entryY=1;entryDx=0;entryDy=0;exitX=0;exitY=0;exitDx=0;exitDy=0;" edge="1" parent="1" source="-q9XP1U6kulb8mDKbYyn-26" target="-q9XP1U6kulb8mDKbYyn-25">
          <mxGeometry width="50" height="50" relative="1" as="geometry">
            <mxPoint x="400" y="1030" as="sourcePoint" />
            <mxPoint x="450" y="980" as="targetPoint" />
          </mxGeometry>
        </mxCell>
        <mxCell id="-q9XP1U6kulb8mDKbYyn-33" value="" style="endArrow=classic;html=1;rounded=0;entryX=1;entryY=0.5;entryDx=0;entryDy=0;" edge="1" parent="1" target="-q9XP1U6kulb8mDKbYyn-27">
          <mxGeometry width="50" height="50" relative="1" as="geometry">
            <mxPoint x="400" y="990" as="sourcePoint" />
            <mxPoint x="450" y="980" as="targetPoint" />
          </mxGeometry>
        </mxCell>
        <mxCell id="-q9XP1U6kulb8mDKbYyn-34" value="" style="endArrow=classic;html=1;rounded=0;entryX=0.5;entryY=0;entryDx=0;entryDy=0;exitX=0;exitY=1;exitDx=0;exitDy=0;" edge="1" parent="1" source="-q9XP1U6kulb8mDKbYyn-25" target="-q9XP1U6kulb8mDKbYyn-27">
          <mxGeometry width="50" height="50" relative="1" as="geometry">
            <mxPoint x="410" y="1061.98" as="sourcePoint" />
            <mxPoint x="238.4000000000001" y="950" as="targetPoint" />
          </mxGeometry>
        </mxCell>
        <mxCell id="-q9XP1U6kulb8mDKbYyn-35" value="&lt;h1&gt;HW11_adhiraj_budukh Q1.S3&lt;/h1&gt;" style="text;html=1;strokeColor=none;fillColor=none;spacing=5;spacingTop=-20;whiteSpace=wrap;overflow=hidden;rounded=0;" vertex="1" parent="1">
          <mxGeometry x="165" y="1020" width="355" height="30" as="geometry" />
        </mxCell>
      </root>
    </mxGraphModel>
  </diagram>
</mxfile>
